<?xml version="1.0" encoding="UTF-8" standalone="no"?>
<!-- Created with Inkscape (http://www.inkscape.org/) -->

<svg
   width="32"
   height="32"
   viewBox="0 0 8.4666659 8.4666667"
   version="1.1"
   id="svg5"
   inkscape:version="1.1.2 (b8e25be833, 2022-02-05)"
   sodipodi:docname="pozo2 - copia.svg"
   inkscape:export-filename="D:\OneDrive\SIG\01 MAPAS\Visor Web de Riesgo Ambiental Básico\Fires-risk-map\img\pozo2 - copia.png"
   inkscape:export-xdpi="96.202477"
   inkscape:export-ydpi="96.202477"
   xmlns:inkscape="http://www.inkscape.org/namespaces/inkscape"
   xmlns:sodipodi="http://sodipodi.sourceforge.net/DTD/sodipodi-0.dtd"
   xmlns="http://www.w3.org/2000/svg"
   xmlns:svg="http://www.w3.org/2000/svg">
  <sodipodi:namedview
     id="namedview7"
     pagecolor="#ffffff"
     bordercolor="#666666"
     borderopacity="1.0"
     inkscape:pageshadow="2"
     inkscape:pageopacity="0.0"
     inkscape:pagecheckerboard="0"
     inkscape:document-units="px"
     showgrid="false"
     inkscape:zoom="11.844781"
     inkscape:cx="23.174763"
     inkscape:cy="16.294096"
     inkscape:window-width="1920"
     inkscape:window-height="1017"
     inkscape:window-x="-8"
     inkscape:window-y="-8"
     inkscape:window-maximized="1"
     inkscape:current-layer="layer1"
     units="px"
     width="7.5in" />
  <defs
     id="defs2">
    <linearGradient
       id="linearGradient1214"
       inkscape:swatch="solid">
      <stop
         style="stop-color:#5d0000;stop-opacity:1;"
         offset="0"
         id="stop1212" />
    </linearGradient>
    <pattern
       id="EMFhbasepattern"
       patternUnits="userSpaceOnUse"
       width="6"
       height="6"
       x="0"
       y="0" />
  </defs>
  <g
     inkscape:label="Capa 1"
     inkscape:groupmode="layer"
     id="layer1">
    <path
       style="fill:#000000;stroke:#ffffff;stroke-width:0;stroke-miterlimit:4;stroke-dasharray:none;stroke-opacity:1"
       d="M 1.8890143,8.3597225 C 1.8964083,8.3237687 2.085299,7.0958289 2.3087694,5.6309656 2.5322399,4.1660981 2.7249556,2.9515096 2.7370263,2.9318738 2.7926751,2.841351 2.8375747,2.8337719 3.3182217,2.8337719 H 3.7751362 V 2.6955546 2.5573372 L 3.677931,2.5438185 C 3.4662184,2.5143361 3.2659303,2.4048485 3.1535397,2.2571297 3.0301521,2.0949574 2.9789518,1.7669453 3.0388582,1.5224285 3.0773075,1.365491 3.1483305,1.2409459 3.3421566,0.99056603 3.5534925,0.71756856 3.5961311,0.61526705 3.5924923,0.38994967 c -0.00244,-0.15068626 0.00306,-0.17386954 0.053311,-0.22472304 0.045949,-0.0465006 0.074646,-0.0567026 0.1595618,-0.0567026 0.1271637,0 0.1702344,0.0305846 0.3172968,0.22545648 0.1235283,0.16366809 0.2438557,0.40071138 0.2667895,0.52556817 0.00845,0.0460206 0.021834,0.083495 0.029739,0.0833033 0.00791,-1.821e-4 0.038857,-0.0228187 0.06878,-0.050283 0.064118,-0.0588444 0.195032,-0.067656 0.2755753,-0.018552 0.066165,0.0403649 0.1030798,0.10385497 0.1751201,0.30128602 0.090224,0.2472687 0.1142007,0.3918235 0.102454,0.6177258 C 5.0297003,2.0126463 4.9904634,2.1213717 4.8656607,2.27922 4.7841079,2.3823702 4.5670789,2.5033341 4.4079365,2.5343362 l -0.1264742,0.02464 0.00675,0.1323735 0.00675,0.1323736 0.4639549,0.00542 0.4639543,0.00542 0.061012,0.055442 c 0.060362,0.054852 0.065326,0.08371 0.4659867,2.7097728 0.2227363,1.4598826 0.4113283,2.6927979 0.4190931,2.7398113 l 0.014117,0.085484 H 5.9505624 5.7180587 L 5.702715,8.3070196 5.6873713,8.18897 4.8583168,7.4674231 4.0292626,6.7458811 3.2090977,7.4596815 C 2.5090342,8.0689553 2.3870158,8.183807 2.3758413,8.2439702 c -0.0072,0.038787 -0.018414,0.095379 -0.024922,0.1257961 l -0.01183,0.055313 H 2.1073322 1.8755693 Z M 3.2447462,6.0628227 C 2.9911005,5.8420076 2.7791754,5.6654719 2.7738014,5.6705255 2.7684271,5.675603 2.7052036,6.0688921 2.6333043,6.5445558 2.5614045,7.0202196 2.4968674,7.4365494 2.4898871,7.469738 2.4793928,7.51964 2.5834863,7.437858 3.0915582,6.9971901 L 3.7059204,6.4643109 Z M 5.4383126,6.5934055 C 5.3611683,6.0918259 5.2928883,5.6769437 5.2865778,5.6714505 5.2802667,5.6659807 5.0675517,5.8419831 4.8138765,6.0626214 L 4.3526486,6.4637786 4.9580789,6.9911304 C 5.2910661,7.2811748 5.5668993,7.5155334 5.5710424,7.5119282 5.575194,7.5081182 5.5154557,7.094985 5.4383126,6.5934055 Z M 4.5896899,5.6946431 5.1382012,5.2168075 4.5893307,4.7392886 4.0404602,4.2617697 3.4863557,4.7444708 2.9322511,5.2271719 3.4747986,5.6998257 c 0.2984013,0.259953 0.5479099,0.4726475 0.5544638,0.4726475 0.00655,0 0.2587462,-0.215025 0.5604275,-0.4778301 z M 3.4123633,3.7146435 C 3.2509941,3.5738471 3.1155414,3.4616319 3.1113573,3.4652751 c -0.00418,0.00384 -0.043418,0.240912 -0.087185,0.5272651 -0.043767,0.2863484 -0.085707,0.552318 -0.093198,0.5910333 -0.012686,0.065571 0.013389,0.04698 0.3805841,-0.2712715 L 3.7057617,3.970637 Z m 1.6422229,0.3538606 c -0.046645,-0.3085248 -0.091436,-0.5675863 -0.099536,-0.575688 -0.0081,-0.0081 -0.1442051,0.098255 -0.3024558,0.2363576 L 4.3648651,3.9802679 4.7446624,4.3113624 c 0.2088882,0.1821053 0.3831574,0.328175 0.3872647,0.3245988 0.0041,-0.00336 -0.030697,-0.2589322 -0.077341,-0.5674571 z M 4.3064991,3.447207 4.5714269,3.2159116 H 4.0462166 c -0.2888658,0 -0.5252105,0.00666 -0.5252105,0.014765 0,0.016731 0.4892516,0.4478351 0.508243,0.4478351 0.00678,0 0.1315396,-0.1040801 0.27725,-0.2312954 z"
       id="path1035" />
  </g>
</svg>
